<svg width="365" height="94" viewBox="0 0 365 94" fill="none" xmlns="http://www.w3.org/2000/svg">
<g clip-path="url(#clip0_4_10)">
<path d="M5.376 85V68.776H33.888C34.976 68.776 35.872 68.552 36.576 68.104C37.344 67.656 37.92 67.08 38.304 66.376C38.752 65.608 38.976 64.808 38.976 63.976C38.976 63.08 38.752 62.28 38.304 61.576C37.92 60.808 37.344 60.2 36.576 59.752C35.872 59.304 34.976 59.08 33.888 59.08H25.248C21.088 59.08 17.312 58.28 13.92 56.68C10.528 55.08 7.808 52.776 5.76 49.768C3.776 46.696 2.784 43.016 2.784 38.728C2.784 34.504 3.744 30.824 5.664 27.688C7.584 24.552 10.176 22.12 13.44 20.392C16.704 18.664 20.32 17.8 24.288 17.8H54.912V34.024H27.072C26.176 34.024 25.376 34.216 24.672 34.6C24.032 34.984 23.52 35.496 23.136 36.136C22.816 36.776 22.656 37.48 22.656 38.248C22.656 39.016 22.816 39.72 23.136 40.36C23.52 41 24.032 41.544 24.672 41.992C25.376 42.376 26.176 42.568 27.072 42.568H36.384C40.928 42.568 44.896 43.432 48.288 45.16C51.68 46.824 54.304 49.16 56.16 52.168C58.016 55.176 58.944 58.728 58.944 62.824C58.944 67.496 57.952 71.496 55.968 74.824C54.048 78.152 51.456 80.68 48.192 82.408C44.928 84.136 41.312 85 37.344 85H5.376ZM100.474 86.248C95.1618 86.248 90.2658 85.384 85.7858 83.656C81.3698 81.928 77.5298 79.496 74.2657 76.36C71.0658 73.16 68.5698 69.448 66.7778 65.224C64.9858 61 64.0898 56.392 64.0898 51.4C64.0898 46.408 64.9858 41.8 66.7778 37.576C68.5698 33.288 71.0658 29.576 74.2657 26.44C77.5298 23.304 81.3698 20.872 85.7858 19.144C90.2658 17.416 95.1618 16.552 100.474 16.552C105.786 16.552 110.65 17.416 115.066 19.144C119.546 20.872 123.386 23.304 126.586 26.44C129.85 29.576 132.378 33.288 134.17 37.576C135.962 41.8 136.858 46.408 136.858 51.4C136.858 56.392 135.962 61 134.17 65.224C132.378 69.448 129.85 73.16 126.586 76.36C123.386 79.496 119.546 81.928 115.066 83.656C110.65 85.384 105.786 86.248 100.474 86.248ZM100.474 69.544C102.842 69.544 104.986 69.096 106.906 68.2C108.826 67.24 110.458 65.928 111.802 64.264C113.146 62.6 114.17 60.68 114.874 58.504C115.578 56.264 115.93 53.896 115.93 51.4C115.93 48.904 115.578 46.568 114.874 44.392C114.17 42.152 113.146 40.2 111.802 38.536C110.458 36.872 108.826 35.592 106.906 34.696C104.986 33.736 102.842 33.256 100.474 33.256C98.1058 33.256 95.9618 33.736 94.0418 34.696C92.1218 35.592 90.4898 36.872 89.1458 38.536C87.8018 40.2 86.7778 42.152 86.0738 44.392C85.3698 46.568 85.0178 48.904 85.0178 51.4C85.0178 53.896 85.3698 56.264 86.0738 58.504C86.7778 60.68 87.8018 62.6 89.1458 64.264C90.4898 65.928 92.1218 67.24 94.0418 68.2C95.9618 69.096 98.1058 69.544 100.474 69.544ZM165.809 85C161.265 85 157.297 84.04 153.905 82.12C150.513 80.2 147.889 77.672 146.033 74.536C144.177 71.336 143.249 67.816 143.249 63.976V17.8H163.984V64.168C163.984 65.384 164.401 66.472 165.233 67.432C166.129 68.328 167.217 68.776 168.497 68.776H186.257V85H165.809ZM226.755 86.248C221.443 86.248 216.547 85.384 212.067 83.656C207.651 81.928 203.811 79.496 200.547 76.36C197.347 73.16 194.851 69.448 193.059 65.224C191.267 61 190.371 56.392 190.371 51.4C190.371 46.408 191.267 41.8 193.059 37.576C194.851 33.288 197.347 29.576 200.547 26.44C203.811 23.304 207.651 20.872 212.067 19.144C216.547 17.416 221.443 16.552 226.755 16.552C232.067 16.552 236.931 17.416 241.347 19.144C245.827 20.872 249.667 23.304 252.867 26.44C256.131 29.576 258.659 33.288 260.451 37.576C262.243 41.8 263.139 46.408 263.139 51.4C263.139 56.392 262.243 61 260.451 65.224C258.659 69.448 256.131 73.16 252.867 76.36C249.667 79.496 245.827 81.928 241.347 83.656C236.931 85.384 232.067 86.248 226.755 86.248ZM226.755 69.544C229.123 69.544 231.267 69.096 233.187 68.2C235.107 67.24 236.739 65.928 238.083 64.264C239.427 62.6 240.451 60.68 241.155 58.504C241.859 56.264 242.211 53.896 242.211 51.4C242.211 48.904 241.859 46.568 241.155 44.392C240.451 42.152 239.427 40.2 238.083 38.536C236.739 36.872 235.107 35.592 233.187 34.696C231.267 33.736 229.123 33.256 226.755 33.256C224.387 33.256 222.243 33.736 220.323 34.696C218.403 35.592 216.771 36.872 215.427 38.536C214.083 40.2 213.059 42.152 212.355 44.392C211.651 46.568 211.299 48.904 211.299 51.4C211.299 53.896 211.651 56.264 212.355 58.504C213.059 60.68 214.083 62.6 215.427 64.264C216.771 65.928 218.403 67.24 220.323 68.2C222.243 69.096 224.387 69.544 226.755 69.544ZM299.77 86.152C293.882 86.152 288.666 85.032 284.122 82.792C279.642 80.488 276.122 77.224 273.562 73C271.002 68.776 269.722 63.784 269.722 58.024V17.8H290.074V58.888C290.074 60.936 290.458 62.792 291.226 64.456C292.058 66.056 293.178 67.304 294.586 68.2C296.058 69.096 297.754 69.544 299.674 69.544C301.658 69.544 303.354 69.096 304.762 68.2C306.17 67.304 307.258 66.056 308.026 64.456C308.858 62.792 309.274 60.936 309.274 58.888V17.8H329.626V58.024C329.626 63.784 328.346 68.776 325.786 73C323.226 77.224 319.706 80.488 315.226 82.792C310.746 85.032 305.594 86.152 299.77 86.152ZM346.616 86.248C343.864 86.248 341.528 85.256 339.608 83.272C337.688 81.288 336.728 78.952 336.728 76.264C336.728 73.512 337.688 71.176 339.608 69.256C341.528 67.272 343.864 66.28 346.616 66.28C349.368 66.28 351.704 67.272 353.624 69.256C355.608 71.176 356.6 73.512 356.6 76.264C356.6 78.056 356.152 79.72 355.256 81.256C354.36 82.728 353.144 83.944 351.608 84.904C350.136 85.8 348.472 86.248 346.616 86.248Z" fill="black"/>
</g>
<defs>
<clipPath id="clip0_4_10">
<rect width="365" height="94" fill="white"/>
</clipPath>
</defs>
</svg>
